<?xml version="1.0" encoding="UTF-8" standalone="no"?>
<!DOCTYPE svg PUBLIC "-//W3C//DTD SVG 1.1//EN" "http://www.w3.org/Graphics/SVG/1.1/DTD/svg11.dtd">
<svg width="100%" height="100%" viewBox="0 0 1080 1080" version="1.1" xmlns="http://www.w3.org/2000/svg" xmlns:xlink="http://www.w3.org/1999/xlink" xml:space="preserve" xmlns:serif="http://www.serif.com/" style="fill-rule:evenodd;clip-rule:evenodd;stroke-linejoin:round;">
    <g transform="matrix(1.00108,0,0,0.999142,-682.823,-228.803)">
        <path d="M1669.5,407.12C1576.6,437.44 1445.2,451.75 1242,453.67C1058.85,455.4 903.92,443.23 813.5,419.99C803.05,417.3 787.08,412.78 778,409.93C767.49,406.64 762.49,405.06 760.12,404.43C757.75,403.8 758.01,404.12 758.02,404.63C758.03,405.11 761.98,414.95 766.81,426.5L775.58,447.5L788.52,451.77C795.64,454.12 802,456.59 802.66,457.27C803.32,457.95 807.52,467.73 812.01,479C825.89,513.92 835.26,536.45 836.42,537.73C838.5,540.02 883.02,548.12 912.75,551.62L928,553.41L928,629.99L844,629.99L844,662.99L914.5,662.99C981.76,662.99 985,662.91 985,661.19C985,660.2 986.58,652.97 988.5,645.13C990.43,637.29 992,630.68 992,630.43C992,630.19 985.25,629.99 977,629.99L962,629.99L962,593.49C962,564.95 962.27,556.99 963.25,557.01C963.94,557.02 975.52,557.91 989,558.99C1005.95,560.35 1013.48,561.16 1017.34,560.63C1021.19,560.1 1021.37,558.23 1023.6,554.24C1025.67,550.53 1029.76,543.5 1032.69,538.61C1035.62,533.73 1038.01,529.41 1038.01,529.02C1038.01,528.63 1029.57,527.77 1019.26,527.11C958.2,523.22 895.88,516.61 869.1,511.18L860.69,509.48L851.36,486.05C846.23,473.16 842.2,462.45 842.41,462.25C842.62,462.04 851.05,463.23 861.15,464.89C909.16,472.76 969.33,479.11 1032.51,482.96C1138.86,489.44 1297.75,489.22 1408.51,482.44C1481.18,477.99 1540.17,471.54 1591.01,462.49C1595.68,461.66 1600.03,460.98 1600.68,460.98C1601.35,460.98 1599.6,466.23 1596.6,473.23C1593.72,479.97 1589.37,490.36 1586.94,496.32C1584.51,502.28 1581.85,507.52 1581.02,507.96C1578.81,509.13 1545.09,514.65 1526.01,516.96C1504.44,519.58 1461.83,523.4 1430.51,525.53C1416.76,526.47 1405.3,527.42 1405.05,527.64C1404.8,527.87 1405.22,529.05 1406,530.26C1406.78,531.47 1410.69,538.09 1414.69,544.96C1418.69,551.84 1422.31,558.02 1422.74,558.71C1423.52,559.97 1426.16,559.84 1471.77,556.37L1481.02,555.67L1481.02,626.95L1452.02,626.95L1452.11,629.7C1452.16,631.21 1453.84,638.75 1455.86,646.45L1459.52,660.45L1599.52,660.45L1600.06,626.95L1515.02,626.95L1515.02,552.33L1530.27,550.54C1556.26,547.48 1603.88,539.09 1606.67,537.07C1607.15,536.73 1611.47,526.55 1616.28,514.45C1621.09,502.35 1628.54,483.9 1632.84,473.45L1640.65,454.45L1667.77,446.61L1675.89,425.83C1680.36,414.4 1684.01,404.58 1684.01,404C1684.01,402.47 1682.8,402.73 1669.51,407.06L1669.5,407.12ZM1356.32,550.5C1317.21,589.9 1292.47,633.23 1281.59,681.39C1280.25,687.32 1278.94,692.39 1278.69,692.64C1278.43,692.9 1275.59,692.42 1272.36,691.59C1245.74,684.71 1207.11,684.26 1176.5,690.47C1169.94,691.8 1164.53,692.8 1164.48,692.69C1164.43,692.58 1163.37,687.76 1162.12,681.99C1153.5,642.14 1131.38,600.04 1101.63,566.85C1091.03,555.02 1070.65,534.99 1069.22,534.99C1067.21,534.99 1048.55,564.35 1040.95,579.48C1022.41,616.35 1011.95,651.98 1006.88,695.49C1005.28,709.24 1004.52,826.45 1005.88,851.83C1007.46,881.43 1011.1,899.62 1020.05,922.5C1031.02,950.56 1045.04,967.83 1082.92,999.94C1114.34,1026.57 1119.59,1032.96 1135.41,1063.76C1153.43,1098.86 1161.26,1109.32 1177.38,1119.84C1190.93,1128.68 1203.55,1132.28 1221.01,1132.27C1245.17,1132.25 1261.99,1125.67 1278.68,1109.72C1286.1,1102.63 1291.74,1094.41 1300.93,1077.31C1304.72,1070.26 1310.22,1060.01 1313.16,1054.52C1324.77,1032.87 1334.38,1021.89 1363.01,997.55C1392.65,972.35 1405.86,957.38 1416.33,937.08C1425.82,918.69 1431.76,899.9 1435.64,875.98C1437.1,866.98 1437.4,855.11 1437.76,792.98C1438.03,745.51 1437.79,715 1437.06,704.62C1433.81,658.42 1420.04,610.15 1399.41,572.65C1393.32,561.58 1380.94,542.56 1376.18,536.97L1373.2,533.47L1356.33,550.47L1356.32,550.5ZM1374.42,593.16C1399.47,647.13 1407.74,695.1 1404.11,765.39L1403.5,777.28L1398.51,770.89C1381.42,749.01 1350.05,723.89 1321.68,709.38L1310.79,703.81L1311.47,698.38C1314.23,676.31 1326.25,644.95 1341.61,619.72C1349.31,607.08 1367.29,583 1369.02,583C1369.39,583 1371.82,587.57 1374.42,593.16ZM1089.55,602.19C1111.34,631.31 1125.82,663.22 1130.99,693.48C1132.02,699.52 1132.78,704.52 1132.68,704.59C1132.58,704.66 1127.55,707.24 1121.5,710.32C1093.39,724.62 1065.56,747.07 1043.98,772.84L1039.5,778.19L1039.46,768.84C1039.44,763.7 1039.28,748.69 1039.11,735.49C1038.94,722.29 1039.31,706.32 1039.93,699.99C1043.59,662.66 1052.89,629.26 1069.29,594.61L1074.44,583.73L1078.37,588.11C1080.53,590.52 1085.57,596.85 1089.55,602.18L1089.55,602.19ZM1249,720.52C1262.15,722.37 1277.91,726.27 1288.29,730.23C1304.77,736.52 1327.03,749.32 1342.5,761.39C1349.32,766.71 1366.74,783.62 1371.2,789.26L1374.18,793.02L1367.34,800.11C1357.88,809.92 1348.14,816.07 1322,828.75C1309.62,834.75 1296.96,841.3 1293.85,843.3C1277.77,853.65 1264.65,866.93 1254.17,883.45L1248.49,892.4L1247.95,875.95C1247.34,857.24 1246.55,854.49 1240.01,848.14C1234.22,842.52 1228.7,840.61 1220.06,841.22C1212.01,841.8 1205.62,844.98 1201.4,850.51C1196.86,856.47 1196.08,860.28 1195.99,876.99C1195.95,885.84 1196.08,890.19 1195.13,890.62C1194.18,891.05 1192.14,887.57 1187.75,880.73C1181.92,871.65 1169.81,858.47 1160.43,851.02C1150.64,843.23 1140.04,837.22 1118.16,827.05C1107.82,822.24 1095.75,815.99 1091.35,813.17C1083.76,808.3 1069.97,795.38 1069.97,793.14C1069.97,789.96 1089.44,770.58 1103.97,759.29C1124.2,743.57 1149.33,731.27 1175.29,724.36C1194.57,719.23 1227.69,717.5 1248.97,720.5L1249,720.52ZM1060.54,829.56C1069.81,838.21 1079.58,844.16 1105,856.63C1140.2,873.9 1151.26,882.12 1162.55,899.44C1173.69,916.54 1178.9,932.12 1179.62,950.5C1180.08,962.23 1180.05,962.44 1178.3,960.03C1162.6,938.34 1151.95,930.47 1118.61,915.91C1109.76,912.04 1099.36,907.03 1095.51,904.76C1075.05,892.71 1060.25,869.29 1056.17,842.5C1054.73,833.03 1053.78,824 1054.23,824C1054.43,824 1057.28,826.5 1060.55,829.56L1060.54,829.56ZM1389.04,834.17C1386.03,859.22 1378.46,877.06 1364.54,891.88C1357.4,899.48 1349.64,904.45 1332.99,912.07C1293.25,930.27 1279.38,939.66 1267.51,956.4C1265.6,959.09 1263.75,961.57 1263.39,961.9C1262.45,962.78 1263.91,946.81 1265.59,937.9C1269.96,914.69 1282.56,892.66 1299.45,878.73C1306.96,872.53 1320.86,864.5 1337,857.01C1354.31,848.98 1369,840.37 1379.8,831.92C1385.13,827.75 1389.65,824.45 1389.83,824.59C1390.01,824.73 1389.66,829.04 1389.04,834.18L1389.04,834.17ZM1072.49,927.81C1080.84,933.37 1099.18,942.73 1114.79,949.41C1141.3,960.75 1154.53,974.53 1160.51,997.01C1162.41,1004.15 1163.98,1045.03 1162.36,1044.99C1161.89,1044.98 1160.4,1042.44 1159.05,1039.33C1155.65,1031.48 1144.95,1015.79 1135.77,1005.18C1127.83,996.01 1116.4,985.67 1098,971.01C1076.67,954.03 1063.09,937.79 1055.45,920.17C1053.55,915.79 1052,911.67 1052,911.02C1052,910.37 1055.04,912.83 1058.75,916.49C1062.46,920.15 1068.65,925.24 1072.5,927.8L1072.49,927.81ZM1388.64,919.8C1380.44,939.24 1368.66,952.61 1338.99,976.16C1315.72,994.63 1298.92,1013.55 1286.95,1034.75C1281.54,1044.33 1281.5,1044.38 1280.98,1040.95C1279.85,1033.47 1281.75,1003.69 1283.87,995.69C1289.25,975.34 1301.47,962.22 1325.62,950.89C1364.92,932.45 1373.74,927.4 1385.62,916.56C1388.84,913.62 1391.6,911.33 1391.75,911.47C1391.9,911.61 1390.49,915.36 1388.62,919.8L1388.64,919.8ZM1243.73,1054.45C1250.14,1057.12 1253.99,1062.05 1253.99,1067.58C1253.99,1073.86 1251.44,1078.23 1242.3,1087.63C1229.73,1100.55 1222.48,1102.84 1212.42,1097.07C1207.4,1094.19 1197.83,1084.24 1192.66,1076.52C1186.04,1066.64 1191.3,1056.4 1204.71,1053.04C1211.23,1051.41 1238.81,1052.4 1243.73,1054.45ZM1172,622.9C1172,623.4 1173.96,628.91 1176.36,635.15C1178.76,641.39 1181.51,648.97 1182.48,652C1183.45,655.03 1184.59,657.88 1185.01,658.34C1185.44,658.81 1194.07,658.65 1204.46,657.97C1221.41,656.87 1237.08,657.27 1256.32,659.3C1257.81,659.46 1258.97,657.21 1262.44,647.49C1266.21,636.95 1268.97,629.68 1271.46,623.74C1272.15,622.09 1269.42,621.99 1222.09,621.99C1193.01,621.99 1171.98,622.37 1171.98,622.89L1172,622.9ZM1482.33,730.75C1484,836.49 1490.81,942.91 1503.52,1062C1505.43,1079.88 1506.99,1095.29 1506.99,1096.25C1506.99,1097.88 1504.71,1098 1473,1098L1439.01,1098L1438.75,1028.33C1438.58,982.43 1438.15,958.55 1437.48,958.33C1436.92,958.14 1434.13,961.71 1431.27,966.25C1425.06,976.1 1414.85,989.01 1409.01,994.39L1404.8,998.27L1405.5,1132.01L1602.9,1132.01L1603.2,1115.42C1603.36,1106.3 1603.31,1098.65 1603.08,1098.42C1602.85,1098.19 1588.79,1098.01 1571.83,1098.01C1551.68,1098.01 1541,1097.66 1541,1097C1541,1096.44 1539.89,1086.43 1538.54,1074.75C1526.91,974.45 1518.79,853.69 1515.83,737.26L1514.61,689.01L1481.67,689.01L1482.33,730.76L1482.33,730.75ZM927.6,730.75C925.48,856.79 920.67,939.6 909.44,1043.5C905.55,1079.46 902.9,1098.44 901.65,1099.23C901.02,1099.63 887.12,1099.97 870.75,1099.98L841,1100L841,1116.44C841,1126.87 841.38,1133.12 842.05,1133.53C842.63,1133.89 886.95,1133.85 940.55,1133.44L1038,1132.7L1038,1064.88C1038,998.21 1037.97,997.04 1036.01,996C1033.03,994.41 1019.58,978.69 1012.67,968.74C1009.33,963.93 1006.24,959.99 1005.8,959.99C1005.36,959.99 1005,991.26 1005,1029.49L1005,1098.99L936.78,1098.99L937.39,1094.74C938.62,1086.12 944.02,1035.7 946.47,1009.99C954.22,928.45 958.91,842.93 960.49,753.99C960.79,737.22 961.28,716.18 961.59,707.24L962.15,690.99L928.29,690.99L927.62,730.74L927.6,730.75Z" style="fill:rgb(253,253,253);stroke:rgb(253,253,253);stroke-width:0.8px;"/>
    </g>
</svg>
